<svg width="196" height="118" viewBox="0 0 196 118" fill="none" xmlns="http://www.w3.org/2000/svg">
<path fill-rule="evenodd" clip-rule="evenodd" d="M57.9877 107L39.2997 73.08H38.824V107H10.936V11.144H50.672C58.0897 11.144 64.5882 12.4383 70.0521 15.1679C75.5505 17.8724 79.7799 21.6734 82.5855 26.6019C85.3403 31.3562 86.696 36.6569 86.696 42.432C86.696 49.0134 84.8035 54.9636 81.0127 60.1821C77.8867 64.5841 73.5499 67.8486 68.1484 70.0431L89.6844 107H57.9877ZM63.728 68.416C64.7302 68.1167 65.6946 67.7855 66.6214 67.4227C71.7707 65.4064 75.7556 62.4095 78.576 58.432C81.9893 53.7387 83.696 48.4053 83.696 42.432C83.696 37.1413 82.4587 32.3627 79.984 28.096C77.5093 23.744 73.7547 20.3307 68.72 17.856C63.7707 15.3813 57.7547 14.144 50.672 14.144H13.936V104H35.824V70.08H41.072L59.76 104H84.464L63.728 68.416ZM56.2533 49.5041L56.2763 49.482C57.5871 48.2258 58.424 46.3225 58.424 43.328C58.424 40.5534 57.616 38.7139 56.2763 37.43L56.2533 37.4079L56.2307 37.3853C55.0398 36.1945 52.962 35.32 49.392 35.32H38.824V51.592H49.392C52.962 51.592 55.0398 50.7175 56.2307 49.5267L56.2533 49.5041ZM35.824 54.592V32.32H49.392C53.4027 32.32 56.3893 33.3013 58.352 35.264C60.4 37.2267 61.424 39.9147 61.424 43.328C61.424 46.912 60.4 49.6853 58.352 51.648C56.3893 53.6107 53.4027 54.592 49.392 54.592H35.824ZM155.299 45.56L154.447 43.9913C153.123 41.5509 151.231 39.7236 148.702 38.4593L148.657 38.4367L148.613 38.4126C146.147 37.0741 143.118 36.344 139.42 36.344C133.073 36.344 128.244 38.4108 124.616 42.402L124.607 42.4122L124.597 42.4222C120.959 46.352 118.996 51.7471 118.996 58.944C118.996 66.6658 121.05 72.3273 124.813 76.3186C128.652 80.2186 133.993 82.312 141.212 82.312C146.06 82.312 149.924 81.0903 152.989 78.8093L153.002 78.7995L153.015 78.7898C155.202 77.1996 157.021 75.1047 158.446 72.44H132.196V50.312H185.812V74.0999L185.688 74.5178C183.943 80.3949 180.967 85.8276 176.804 90.8079C172.665 95.8629 167.404 99.916 161.083 102.987C154.65 106.111 147.452 107.64 139.548 107.64C130.226 107.64 121.784 105.619 114.297 101.51L114.278 101.499L114.259 101.489C106.876 97.2961 101.068 91.488 96.8753 84.1055L96.8684 84.0932L96.8615 84.0809C92.7448 76.6708 90.724 68.265 90.724 58.944C90.724 49.623 92.7448 41.2171 96.8615 33.8071L96.8676 33.7962C101.058 26.3257 106.871 20.5062 114.271 16.3924C121.682 12.1863 130.093 10.12 139.42 10.12C150.667 10.12 160.348 12.8488 168.285 18.4766C176.32 24.1126 181.622 31.9413 184.18 41.8071L185.153 45.56H155.299ZM166.556 20.928C159.217 15.7227 150.172 13.12 139.42 13.12C130.545 13.12 122.652 15.0827 115.74 19.008C108.828 22.848 103.409 28.2667 99.484 35.264C95.644 42.176 93.724 50.0693 93.724 58.944C93.724 67.8187 95.644 75.712 99.484 82.624C103.409 89.536 108.828 94.9547 115.74 98.88C122.737 102.72 130.673 104.64 139.548 104.64C147.057 104.64 153.799 103.189 159.772 100.288C165.745 97.3867 170.652 93.5893 174.492 88.896C178.417 84.2027 181.191 79.1253 182.812 73.664V53.312H135.196V69.44H162.972C162.622 70.4903 162.229 71.4903 161.792 72.44C160.102 76.1201 157.764 79.0455 154.78 81.216C151.111 83.9467 146.588 85.312 141.212 85.312C133.361 85.312 127.175 83.008 122.652 78.4C118.215 73.7067 115.996 67.2213 115.996 58.944C115.996 51.1787 118.129 44.992 122.396 40.384C126.663 35.6907 132.337 33.344 139.42 33.344C143.516 33.344 147.057 34.1547 150.044 35.776C153.116 37.312 155.463 39.5733 157.084 42.56H181.276C181.01 41.5352 180.714 40.5352 180.386 39.56C177.764 31.7652 173.154 25.5545 166.556 20.928Z" fill="#FFAB00"/>
</svg>
