<svg width="1200" height="602" viewBox="0 0 1200 602" fill="none" xmlns="http://www.w3.org/2000/svg">
<rect y="0.665894" width="1200" height="6.19" fill="#063401"/>
<rect y="13.0459" width="1200" height="6.19" fill="#063401"/>
<rect y="13.0459" width="1200" height="6.19" fill="#063401"/>
<rect y="13.0459" width="1200" height="6.19" fill="#063401"/>
<rect y="13.0459" width="1200" height="6.19" fill="#063401"/>
<rect y="13.0459" width="1200" height="6.19" fill="#063401"/>
<rect y="13.0459" width="1200" height="6.19" fill="#063401"/>
<rect y="13.0459" width="1200" height="6.19" fill="#063401"/>
<rect y="13.0459" width="1200" height="6.19" fill="#063401"/>
<rect y="13.0459" width="1200" height="6.19" fill="#063401"/>
<rect y="13.0459" width="1200" height="6.19" fill="#063401"/>
<rect y="13.0459" width="1200" height="6.19" fill="#063401"/>
<rect y="13.0459" width="1200" height="6.19" fill="#063401"/>
<rect y="13.0459" width="1200" height="6.19" fill="#063401"/>
<rect y="13.0459" width="1200" height="6.19" fill="#063401"/>
<rect y="13.0459" width="1200" height="6.19" fill="#063401"/>
<rect y="13.0459" width="1200" height="6.19" fill="#063401"/>
<rect y="13.0459" width="1200" height="6.19" fill="#063401"/>
<rect y="13.0459" width="1200" height="6.19" fill="#063401"/>
<rect y="13.0459" width="1200" height="6.19" fill="#063401"/>
<rect y="13.0459" width="1200" height="6.19" fill="#063401"/>
<rect y="13.0459" width="1200" height="6.19" fill="#063401"/>
<rect y="13.0459" width="1200" height="6.19" fill="#063401"/>
<rect y="13.0459" width="1200" height="6.19" fill="#063401"/>
<rect y="13.0459" width="1200" height="6.19" fill="#063401"/>
<rect y="25.4259" width="1200" height="6.19" fill="#063401"/>
<rect y="37.8059" width="1200" height="6.19" fill="#063401"/>
<rect y="50.1859" width="1200" height="6.19" fill="#063401"/>
<rect y="62.5659" width="1200" height="6.19" fill="#063401"/>
<rect y="74.9458" width="1200" height="6.19" fill="#063401"/>
<rect y="87.3259" width="1200" height="6.19" fill="#063401"/>
<rect y="99.7058" width="1200" height="6.19" fill="#063401"/>
<rect y="112.086" width="1200" height="6.19" fill="#063401"/>
<rect y="124.466" width="1200" height="6.19" fill="#063401"/>
<rect y="136.846" width="1200" height="6.19" fill="#063401"/>
<rect y="149.226" width="1200" height="6.19" fill="#063401"/>
<rect y="161.606" width="1200" height="6.19" fill="#063401"/>
<rect y="173.986" width="1200" height="6.19" fill="#063401"/>
<rect y="186.366" width="1200" height="6.19" fill="#063401"/>
<rect y="198.746" width="1200" height="6.19" fill="#063401"/>
<rect y="211.126" width="1200" height="6.19" fill="#063401"/>
<rect y="223.506" width="1200" height="6.19" fill="#063401"/>
<rect y="235.886" width="1200" height="6.19" fill="#063401"/>
<rect y="248.266" width="1200" height="6.19" fill="#063401"/>
<rect y="260.646" width="1200" height="6.19" fill="#063401"/>
<rect y="273.026" width="1200" height="6.19" fill="#063401"/>
<rect y="285.406" width="1200" height="6.19" fill="#063401"/>
<rect y="297.786" width="1200" height="6.19" fill="#063401"/>
<rect y="310.166" width="1200" height="6.19" fill="#063401"/>
<rect y="322.546" width="1200" height="6.19" fill="#063401"/>
<rect y="334.926" width="1200" height="6.19" fill="#063401"/>
<rect y="347.306" width="1200" height="6.19" fill="#063401"/>
<rect y="359.686" width="1200" height="6.19" fill="#063401"/>
<rect y="372.066" width="1200" height="6.19" fill="#063401"/>
<rect y="384.446" width="1200" height="6.19" fill="#063401"/>
<rect y="396.826" width="1200" height="6.19" fill="#063401"/>
<rect y="409.206" width="1200" height="6.19" fill="#063401"/>
<rect y="421.586" width="1200" height="6.19" fill="#063401"/>
<rect y="433.966" width="1200" height="6.19" fill="#063401"/>
<rect y="446.346" width="1200" height="6.19" fill="#063401"/>
<rect y="458.726" width="1200" height="6.19" fill="#063401"/>
<rect y="471.106" width="1200" height="6.19" fill="#063401"/>
<rect y="483.486" width="1200" height="6.19" fill="#063401"/>
<rect y="495.866" width="1200" height="6.19" fill="#063401"/>
<rect y="508.246" width="1200" height="6.19" fill="#063401"/>
<rect y="520.626" width="1200" height="6.19" fill="#063401"/>
<rect y="533.006" width="1200" height="6.19" fill="#063401"/>
<rect y="545.386" width="1200" height="6.19" fill="#063401"/>
<rect y="557.766" width="1200" height="6.19" fill="#063401"/>
<rect y="570.146" width="1200" height="6.19" fill="#063401"/>
<rect y="582.526" width="1200" height="6.19" fill="#063401"/>
<rect y="594.906" width="1200" height="6.19" fill="#063401"/>
</svg>
