<svg width="113" height="13" viewBox="0 0 113 13" fill="none" xmlns="http://www.w3.org/2000/svg">
<path d="M5.728 12.816L3.392 8.576H2.736V12.816H0V1.584H4.592C5.47733 1.584 6.22933 1.73867 6.848 2.048C7.47733 2.35733 7.94667 2.784 8.256 3.328C8.56533 3.86133 8.72 4.45867 8.72 5.12C8.72 5.86667 8.50667 6.53333 8.08 7.12C7.664 7.70667 7.04533 8.12267 6.224 8.368L8.816 12.816H5.728ZM2.736 6.64H4.432C4.93333 6.64 5.30667 6.51733 5.552 6.272C5.808 6.02667 5.936 5.68 5.936 5.232C5.936 4.80533 5.808 4.46933 5.552 4.224C5.30667 3.97867 4.93333 3.856 4.432 3.856H2.736V6.64ZM14.5015 12.944C13.6268 12.944 12.8375 12.7573 12.1335 12.384C11.4402 12.0107 10.8908 11.4773 10.4855 10.784C10.0908 10.0907 9.8935 9.28 9.8935 8.352C9.8935 7.43467 10.0962 6.62933 10.5015 5.936C10.9068 5.232 11.4615 4.69333 12.1655 4.32C12.8695 3.94667 13.6588 3.76 14.5335 3.76C15.4082 3.76 16.1975 3.94667 16.9015 4.32C17.6055 4.69333 18.1602 5.232 18.5655 5.936C18.9708 6.62933 19.1735 7.43467 19.1735 8.352C19.1735 9.26933 18.9655 10.08 18.5495 10.784C18.1442 11.4773 17.5842 12.0107 16.8695 12.384C16.1655 12.7573 15.3762 12.944 14.5015 12.944ZM14.5015 10.576C15.0242 10.576 15.4668 10.384 15.8295 10C16.2028 9.616 16.3895 9.06667 16.3895 8.352C16.3895 7.63733 16.2082 7.088 15.8455 6.704C15.4935 6.32 15.0562 6.128 14.5335 6.128C14.0002 6.128 13.5575 6.32 13.2055 6.704C12.8535 7.07733 12.6775 7.62667 12.6775 8.352C12.6775 9.06667 12.8482 9.616 13.1895 10C13.5415 10.384 13.9788 10.576 14.5015 10.576ZM20.081 8.352C20.081 7.424 20.2677 6.61333 20.641 5.92C21.025 5.22667 21.553 4.69333 22.225 4.32C22.9077 3.94667 23.6863 3.76 24.561 3.76C25.681 3.76 26.6143 4.05333 27.361 4.64C28.1183 5.22667 28.6143 6.05333 28.849 7.12H25.937C25.6917 6.43733 25.217 6.096 24.513 6.096C24.0117 6.096 23.6117 6.29333 23.313 6.688C23.0143 7.072 22.865 7.62667 22.865 8.352C22.865 9.07733 23.0143 9.63733 23.313 10.032C23.6117 10.416 24.0117 10.608 24.513 10.608C25.217 10.608 25.6917 10.2667 25.937 9.584H28.849C28.6143 10.6293 28.1183 11.4507 27.361 12.048C26.6037 12.6453 25.6703 12.944 24.561 12.944C23.6863 12.944 22.9077 12.7573 22.225 12.384C21.553 12.0107 21.025 11.4773 20.641 10.784C20.2677 10.0907 20.081 9.28 20.081 8.352ZM35.7685 12.816L33.0485 9.072V12.816H30.3125V0.976001H33.0485V7.52L35.7525 3.888H39.1285L35.4165 8.368L39.1605 12.816H35.7685ZM41.5791 2.96C41.0991 2.96 40.7045 2.82133 40.3951 2.544C40.0965 2.256 39.9471 1.904 39.9471 1.488C39.9471 1.06133 40.0965 0.709334 40.3951 0.432C40.7045 0.144 41.0991 0 41.5791 0C42.0485 0 42.4325 0.144 42.7311 0.432C43.0405 0.709334 43.1951 1.06133 43.1951 1.488C43.1951 1.904 43.0405 2.256 42.7311 2.544C42.4325 2.82133 42.0485 2.96 41.5791 2.96ZM42.9391 3.888V12.816H40.2031V3.888H42.9391ZM50.3619 3.792C51.4072 3.792 52.2392 4.13333 52.8579 4.816C53.4872 5.488 53.8019 6.416 53.8019 7.6V12.816H51.0819V7.968C51.0819 7.37067 50.9272 6.90667 50.6179 6.576C50.3085 6.24533 49.8925 6.08 49.3699 6.08C48.8472 6.08 48.4312 6.24533 48.1219 6.576C47.8125 6.90667 47.6579 7.37067 47.6579 7.968V12.816H44.9219V3.888H47.6579V5.072C47.9352 4.67733 48.3085 4.368 48.7779 4.144C49.2472 3.90933 49.7752 3.792 50.3619 3.792ZM63.1591 5.136C62.9565 4.76267 62.6631 4.48 62.2791 4.288C61.9058 4.08533 61.4631 3.984 60.9511 3.984C60.0658 3.984 59.3565 4.27733 58.8231 4.864C58.2898 5.44 58.0231 6.21333 58.0231 7.184C58.0231 8.21867 58.3005 9.02933 58.8551 9.616C59.4205 10.192 60.1938 10.48 61.1751 10.48C61.8471 10.48 62.4125 10.3093 62.8711 9.968C63.3405 9.62667 63.6818 9.136 63.8951 8.496H60.4231V6.48H66.3751V9.024C66.1725 9.70667 65.8258 10.3413 65.3351 10.928C64.8551 11.5147 64.2418 11.9893 63.4951 12.352C62.7485 12.7147 61.9058 12.896 60.9671 12.896C59.8578 12.896 58.8658 12.656 57.9911 12.176C57.1271 11.6853 56.4498 11.008 55.9591 10.144C55.4791 9.28 55.2391 8.29333 55.2391 7.184C55.2391 6.07467 55.4791 5.088 55.9591 4.224C56.4498 3.34933 57.1271 2.672 57.9911 2.192C58.8551 1.70133 59.8418 1.456 60.9511 1.456C62.2951 1.456 63.4258 1.78133 64.3431 2.432C65.2711 3.08267 65.8845 3.984 66.1831 5.136H63.1591ZM67.3466 8.336C67.3466 7.41867 67.5173 6.61333 67.8586 5.92C68.2106 5.22667 68.6853 4.69333 69.2826 4.32C69.88 3.94667 70.5466 3.76 71.2826 3.76C71.912 3.76 72.4613 3.888 72.9306 4.144C73.4106 4.4 73.7786 4.736 74.0346 5.152V3.888H76.7706V12.816H74.0346V11.552C73.768 11.968 73.3946 12.304 72.9146 12.56C72.4453 12.816 71.896 12.944 71.2666 12.944C70.5413 12.944 69.88 12.7573 69.2826 12.384C68.6853 12 68.2106 11.4613 67.8586 10.768C67.5173 10.064 67.3466 9.25333 67.3466 8.336ZM74.0346 8.352C74.0346 7.66933 73.8426 7.13067 73.4586 6.736C73.0853 6.34133 72.6266 6.144 72.0826 6.144C71.5386 6.144 71.0746 6.34133 70.6906 6.736C70.3173 7.12 70.1306 7.65333 70.1306 8.336C70.1306 9.01867 70.3173 9.56267 70.6906 9.968C71.0746 10.3627 71.5386 10.56 72.0826 10.56C72.6266 10.56 73.0853 10.3627 73.4586 9.968C73.8426 9.57333 74.0346 9.03467 74.0346 8.352ZM90.142 3.792C91.2513 3.792 92.1313 4.128 92.782 4.8C93.4433 5.472 93.774 6.40533 93.774 7.6V12.816H91.054V7.968C91.054 7.392 90.8993 6.94933 90.59 6.64C90.2913 6.32 89.8753 6.16 89.342 6.16C88.8087 6.16 88.3873 6.32 88.078 6.64C87.7793 6.94933 87.63 7.392 87.63 7.968V12.816H84.91V7.968C84.91 7.392 84.7553 6.94933 84.446 6.64C84.1473 6.32 83.7313 6.16 83.198 6.16C82.6647 6.16 82.2433 6.32 81.934 6.64C81.6353 6.94933 81.486 7.392 81.486 7.968V12.816H78.75V3.888H81.486V5.008C81.7633 4.63467 82.126 4.34133 82.574 4.128C83.022 3.904 83.5287 3.792 84.094 3.792C84.766 3.792 85.3633 3.936 85.886 4.224C86.4193 4.512 86.8353 4.92267 87.134 5.456C87.4433 4.96533 87.8647 4.56533 88.398 4.256C88.9313 3.94667 89.5127 3.792 90.142 3.792ZM104.103 8.208C104.103 8.464 104.088 8.73067 104.056 9.008H97.8635C97.9062 9.56267 98.0822 9.9893 98.3915 10.288C98.7115 10.576 99.101 10.72 99.56 10.72C100.242 10.72 100.717 10.432 100.984 9.856H103.896C103.746 10.4427 103.474 10.9707 103.08 11.44C102.696 11.9093 102.21 12.2773 101.624 12.544C101.037 12.8107 100.381 12.944 99.656 12.944C98.7808 12.944 98.0022 12.7573 97.3195 12.384C96.6368 12.0107 96.1035 11.4773 95.7195 10.784C95.3355 10.0907 95.1435 9.28 95.1435 8.352C95.1435 7.424 95.3302 6.61333 95.7035 5.92C96.0875 5.22667 96.6208 4.69333 97.3035 4.32C97.9862 3.94667 98.7702 3.76 99.656 3.76C100.52 3.76 101.288 3.94133 101.96 4.304C102.632 4.66667 103.154 5.184 103.528 5.856C103.912 6.528 104.103 7.312 104.103 8.208ZM101.304 7.488C101.304 7.01867 101.144 6.64533 100.824 6.368C100.504 6.09067 100.104 5.952 99.624 5.952C99.165 5.952 98.7755 6.08533 98.4555 6.352C98.1462 6.61867 97.9542 6.99733 97.8795 7.488H101.304ZM109.179 12.944C108.4 12.944 107.707 12.8107 107.099 12.544C106.491 12.2773 106.011 11.9147 105.659 11.456C105.307 10.9867 105.11 10.464 105.067 9.888H107.771C107.803 10.1973 107.947 10.448 108.203 10.64C108.459 10.832 108.774 10.928 109.147 10.928C109.488 10.928 109.75 10.864 109.931 10.736C110.123 10.5973 110.219 10.4213 110.219 10.208C110.219 9.952 110.086 9.76533 109.819 9.648C109.552 9.52 109.12 9.38133 108.523 9.232C107.883 9.08267 107.35 8.928 106.923 8.768C106.496 8.59733 106.128 8.336 105.819 7.984C105.51 7.62133 105.355 7.136 105.355 6.528C105.355 6.016 105.494 5.552 105.771 5.136C106.059 4.70933 106.475 4.37333 107.019 4.128C107.574 3.88267 108.23 3.76 108.987 3.76C110.107 3.76 110.987 4.03733 111.627 4.592C112.278 5.14667 112.651 5.88267 112.747 6.8H110.219C110.176 6.49067 110.038 6.24533 109.803 6.064C109.579 5.88267 109.28 5.792 108.907 5.792C108.587 5.792 108.342 5.856 108.171 5.984C108 6.10133 107.915 6.26667 107.915 6.48C107.915 6.736 108.048 6.928 108.315 7.056C108.592 7.184 109.019 7.312 109.595 7.44C110.256 7.61067 110.795 7.78133 111.211 7.952C111.627 8.112 111.99 8.37867 112.299 8.752C112.619 9.11467 112.784 9.60533 112.795 10.224C112.795 10.7467 112.646 11.216 112.347 11.632C112.059 12.0373 111.638 12.3573 111.083 12.592C110.539 12.8267 109.904 12.944 109.179 12.944Z" fill="#FFAB00"/>
</svg>
