<svg width="40" height="40" viewBox="0 0 40 40" fill="none" xmlns="http://www.w3.org/2000/svg">
<g clip-path="url(#clip0_320_812)">
<path d="M25.5002 9.25C24.2335 9.24979 23.0173 9.74687 22.1134 10.6343C21.2094 11.5217 20.69 12.7285 20.6669 13.995L20.6202 16.62C20.6175 16.7609 20.585 16.8997 20.5248 17.0272C20.4647 17.1547 20.3783 17.268 20.2713 17.3598C20.1642 17.4515 20.039 17.5196 19.9039 17.5596C19.7687 17.5996 19.6266 17.6105 19.4869 17.5917L16.8852 17.2383C13.4619 16.7717 10.1819 15.195 7.0352 12.5733C6.03853 18.09 7.9852 21.9117 12.6735 24.86L15.5852 26.69C15.7235 26.7769 15.8385 26.8965 15.9199 27.0381C16.0014 27.1797 16.0469 27.3392 16.0525 27.5025C16.0581 27.6658 16.0236 27.8279 15.952 27.9748C15.8804 28.1217 15.7739 28.2488 15.6419 28.345L12.9885 30.2833C14.5669 30.3817 16.0652 30.3117 17.3085 30.065C25.1719 28.495 30.4002 22.5783 30.4002 12.8183C30.4002 12.0217 28.7135 9.25 25.5002 9.25ZM17.3335 13.9333C17.3626 12.3267 17.865 10.7644 18.7778 9.44203C19.6906 8.11962 20.9732 7.09586 22.4651 6.49894C23.9569 5.90202 25.5917 5.75846 27.1648 6.08624C28.7378 6.41402 30.1792 7.19857 31.3085 8.34166C32.4935 8.33333 33.5019 8.63333 35.7569 7.26666C35.1985 10 34.9235 11.1867 33.7335 12.8183C33.7335 25.555 25.9052 31.7483 17.9619 33.3333C12.5152 34.42 4.5952 32.635 2.3252 30.265C3.48186 30.175 8.18186 29.67 10.8985 27.6817C8.6002 26.1667 -0.548138 20.7833 5.46353 6.31C8.2852 9.605 11.1469 11.8483 14.0469 13.0383C15.9769 13.83 16.4502 13.8133 17.3352 13.935L17.3335 13.9333Z" fill="#FFAB00"/>
</g>
<defs>
<clipPath id="clip0_320_812">
<rect width="40" height="40" fill="white"/>
</clipPath>
</defs>
</svg>
