<svg width="40" height="40" viewBox="0 0 40 40" fill="none" xmlns="http://www.w3.org/2000/svg">
<g clip-path="url(#clip0_320_808)">
<path d="M23.19 24.3C22.9228 24.3652 22.6538 24.423 22.3833 24.4733C20.9157 24.7496 19.4089 24.7439 17.9433 24.4567C17.6867 24.4067 17.3233 24.3183 16.855 24.1933L15.32 26.1883C11.5317 26.0667 10.0917 23.5283 10.0917 23.5283C10.0917 17.8933 12.56 13.325 12.56 13.325C15.0283 11.4367 17.3767 11.4883 17.3767 11.4883L18.0483 12.3633C18.1102 12.3547 18.1725 12.3491 18.235 12.3467C19.5153 12.1769 20.8128 12.1826 22.0917 12.3633L22.8283 11.4883C22.8283 11.4883 25.1783 11.4367 27.645 13.3267C27.645 13.3267 30.115 17.8933 30.115 23.5283C30.115 23.5283 28.6567 26.065 24.8683 26.1883L23.19 24.2983V24.3ZM16.7933 18.3333C15.7917 18.3333 15 19.0833 15 20C15 20.9167 15.8083 21.6667 16.7933 21.6667C17.7933 21.6667 18.585 20.9167 18.585 20C18.6017 19.0833 17.795 18.3333 16.7933 18.3333ZM23.2067 18.3333C22.2067 18.3333 21.415 19.0833 21.415 20C21.415 20.9167 22.2233 21.6667 23.2067 21.6667C24.2083 21.6667 25 20.9167 25 20C25 19.0833 24.2083 18.3333 23.2067 18.3333ZM35 38.3333L26.6833 30H31.6667V6.66666H8.33333V30H26.6717L27.6217 33.3333H8.33333C7.44928 33.3333 6.60143 32.9821 5.97631 32.357C5.35119 31.7319 5 30.884 5 30V6.66666C5 5.78261 5.35119 4.93476 5.97631 4.30964C6.60143 3.68452 7.44928 3.33333 8.33333 3.33333H31.6667C32.5507 3.33333 33.3986 3.68452 34.0237 4.30964C34.6488 4.93476 35 5.78261 35 6.66666V38.3333Z" fill="#FFAB00"/>
</g>
<defs>
<clipPath id="clip0_320_808">
<rect width="40" height="40" fill="white"/>
</clipPath>
</defs>
</svg>
