<svg width="40" height="40" viewBox="0 0 40 40" fill="none" xmlns="http://www.w3.org/2000/svg">
<g clip-path="url(#clip0_320_820)">
<path d="M23.3333 31.6667H31.6667V8.33333H8.33333V31.6667H20V23.3333H16.6667V20H20V17.2433C20 15.015 20.2333 14.2067 20.6667 13.3917C21.0935 12.5853 21.7533 11.9261 22.56 11.5C23.1967 11.1583 23.9883 10.9533 25.3717 10.865C25.92 10.83 26.63 10.8733 27.5017 10.9983V14.165H26.6667C25.1383 14.165 24.5067 14.2367 24.13 14.4383C23.9052 14.5539 23.7223 14.7369 23.6067 14.9617C23.4067 15.3383 23.3333 15.7117 23.3333 17.2417V20H27.5L26.6667 23.3333H23.3333V31.6667ZM6.66667 5H33.3333C33.7754 5 34.1993 5.17559 34.5118 5.48816C34.8244 5.80072 35 6.22464 35 6.66667V33.3333C35 33.7754 34.8244 34.1993 34.5118 34.5118C34.1993 34.8244 33.7754 35 33.3333 35H6.66667C6.22464 35 5.80072 34.8244 5.48816 34.5118C5.17559 34.1993 5 33.7754 5 33.3333V6.66667C5 6.22464 5.17559 5.80072 5.48816 5.48816C5.80072 5.17559 6.22464 5 6.66667 5Z" fill="#FFAB00"/>
</g>
<defs>
<clipPath id="clip0_320_820">
<rect width="40" height="40" fill="white"/>
</clipPath>
</defs>
</svg>
